<mxfile host="Electron" agent="Mozilla/5.0 (Macintosh; Intel Mac OS X 10_15_7) AppleWebKit/537.36 (KHTML, like Gecko) draw.io/24.7.8 Chrome/128.0.6613.36 Electron/32.0.1 Safari/537.36" version="24.7.8">
  <diagram name="Page-1" id="2YBvvXClWsGukQMizWep">
    <mxGraphModel dx="1016" dy="854" grid="1" gridSize="10" guides="1" tooltips="1" connect="1" arrows="1" fold="1" page="1" pageScale="1" pageWidth="850" pageHeight="1100" math="0" shadow="0">
      <root>
        <mxCell id="0" />
        <mxCell id="1" parent="0" />
        <mxCell id="ama0kXbUllyE-8_Y7R_g-76" style="edgeStyle=orthogonalEdgeStyle;rounded=0;orthogonalLoop=1;jettySize=auto;html=1;exitX=0.5;exitY=1;exitDx=0;exitDy=0;entryX=0.5;entryY=1;entryDx=0;entryDy=0;" edge="1" parent="1" source="ama0kXbUllyE-8_Y7R_g-74" target="ama0kXbUllyE-8_Y7R_g-73">
          <mxGeometry relative="1" as="geometry" />
        </mxCell>
        <mxCell id="ama0kXbUllyE-8_Y7R_g-22" value="DNS&lt;div&gt;Server&lt;/div&gt;" style="rounded=0;whiteSpace=wrap;html=1;" vertex="1" parent="1">
          <mxGeometry x="80" y="40" width="80" height="60" as="geometry" />
        </mxCell>
        <mxCell id="ama0kXbUllyE-8_Y7R_g-23" value="Requestor" style="rounded=0;whiteSpace=wrap;html=1;" vertex="1" parent="1">
          <mxGeometry x="280" y="40" width="80" height="60" as="geometry" />
        </mxCell>
        <mxCell id="ama0kXbUllyE-8_Y7R_g-24" value="Approver&lt;div&gt;(Issuer)&lt;/div&gt;" style="rounded=0;whiteSpace=wrap;html=1;" vertex="1" parent="1">
          <mxGeometry x="480" y="40" width="80" height="60" as="geometry" />
        </mxCell>
        <mxCell id="ama0kXbUllyE-8_Y7R_g-25" value="DNS&lt;div&gt;Server&lt;/div&gt;" style="rounded=0;whiteSpace=wrap;html=1;" vertex="1" parent="1">
          <mxGeometry x="680" y="40" width="80" height="60" as="geometry" />
        </mxCell>
        <mxCell id="ama0kXbUllyE-8_Y7R_g-27" value="" style="endArrow=none;dashed=1;html=1;dashPattern=1 3;strokeWidth=2;rounded=0;entryX=0.5;entryY=1;entryDx=0;entryDy=0;" edge="1" parent="1" source="ama0kXbUllyE-8_Y7R_g-65" target="ama0kXbUllyE-8_Y7R_g-22">
          <mxGeometry width="50" height="50" relative="1" as="geometry">
            <mxPoint x="120" y="560" as="sourcePoint" />
            <mxPoint x="450" y="410" as="targetPoint" />
          </mxGeometry>
        </mxCell>
        <mxCell id="ama0kXbUllyE-8_Y7R_g-28" value="" style="endArrow=none;dashed=1;html=1;dashPattern=1 3;strokeWidth=2;rounded=0;entryX=0.5;entryY=1;entryDx=0;entryDy=0;" edge="1" parent="1" source="ama0kXbUllyE-8_Y7R_g-45" target="ama0kXbUllyE-8_Y7R_g-23">
          <mxGeometry width="50" height="50" relative="1" as="geometry">
            <mxPoint x="320" y="560" as="sourcePoint" />
            <mxPoint x="460" y="420" as="targetPoint" />
          </mxGeometry>
        </mxCell>
        <mxCell id="ama0kXbUllyE-8_Y7R_g-29" value="" style="endArrow=none;dashed=1;html=1;dashPattern=1 3;strokeWidth=2;rounded=0;entryX=0.5;entryY=1;entryDx=0;entryDy=0;" edge="1" parent="1" source="ama0kXbUllyE-8_Y7R_g-31" target="ama0kXbUllyE-8_Y7R_g-24">
          <mxGeometry width="50" height="50" relative="1" as="geometry">
            <mxPoint x="520" y="560" as="sourcePoint" />
            <mxPoint x="470" y="430" as="targetPoint" />
          </mxGeometry>
        </mxCell>
        <mxCell id="ama0kXbUllyE-8_Y7R_g-30" value="" style="endArrow=none;dashed=1;html=1;dashPattern=1 3;strokeWidth=2;rounded=0;entryX=0.5;entryY=1;entryDx=0;entryDy=0;" edge="1" parent="1" source="ama0kXbUllyE-8_Y7R_g-36" target="ama0kXbUllyE-8_Y7R_g-25">
          <mxGeometry width="50" height="50" relative="1" as="geometry">
            <mxPoint x="720" y="560" as="sourcePoint" />
            <mxPoint x="480" y="440" as="targetPoint" />
          </mxGeometry>
        </mxCell>
        <mxCell id="ama0kXbUllyE-8_Y7R_g-32" value="" style="endArrow=none;dashed=1;html=1;dashPattern=1 3;strokeWidth=2;rounded=0;entryX=0.5;entryY=1;entryDx=0;entryDy=0;" edge="1" parent="1" source="ama0kXbUllyE-8_Y7R_g-57" target="ama0kXbUllyE-8_Y7R_g-31">
          <mxGeometry width="50" height="50" relative="1" as="geometry">
            <mxPoint x="520" y="560" as="sourcePoint" />
            <mxPoint x="520" y="100" as="targetPoint" />
          </mxGeometry>
        </mxCell>
        <mxCell id="ama0kXbUllyE-8_Y7R_g-31" value="" style="rounded=0;whiteSpace=wrap;html=1;" vertex="1" parent="1">
          <mxGeometry x="510" y="140" width="20" height="60" as="geometry" />
        </mxCell>
        <mxCell id="ama0kXbUllyE-8_Y7R_g-33" value="" style="endArrow=classic;html=1;rounded=0;exitX=1;exitY=0;exitDx=0;exitDy=0;entryX=1;entryY=0.5;entryDx=0;entryDy=0;" edge="1" parent="1" source="ama0kXbUllyE-8_Y7R_g-31" target="ama0kXbUllyE-8_Y7R_g-31">
          <mxGeometry relative="1" as="geometry">
            <mxPoint x="370" y="440" as="sourcePoint" />
            <mxPoint x="540" y="170" as="targetPoint" />
            <Array as="points">
              <mxPoint x="640" y="140" />
              <mxPoint x="640" y="170" />
            </Array>
          </mxGeometry>
        </mxCell>
        <mxCell id="ama0kXbUllyE-8_Y7R_g-34" value="Generate key pair" style="edgeLabel;resizable=0;html=1;;align=center;verticalAlign=middle;" connectable="0" vertex="1" parent="ama0kXbUllyE-8_Y7R_g-33">
          <mxGeometry relative="1" as="geometry">
            <mxPoint x="-60" y="-25" as="offset" />
          </mxGeometry>
        </mxCell>
        <mxCell id="ama0kXbUllyE-8_Y7R_g-37" value="" style="endArrow=none;dashed=1;html=1;dashPattern=1 3;strokeWidth=2;rounded=0;entryX=0.5;entryY=1;entryDx=0;entryDy=0;" edge="1" parent="1" target="ama0kXbUllyE-8_Y7R_g-36">
          <mxGeometry width="50" height="50" relative="1" as="geometry">
            <mxPoint x="720" y="560" as="sourcePoint" />
            <mxPoint x="720" y="100" as="targetPoint" />
          </mxGeometry>
        </mxCell>
        <mxCell id="ama0kXbUllyE-8_Y7R_g-36" value="" style="rounded=0;whiteSpace=wrap;html=1;" vertex="1" parent="1">
          <mxGeometry x="710" y="200" width="20" height="30" as="geometry" />
        </mxCell>
        <mxCell id="ama0kXbUllyE-8_Y7R_g-38" value="" style="endArrow=classic;html=1;rounded=0;exitX=1;exitY=1;exitDx=0;exitDy=0;entryX=0;entryY=0;entryDx=0;entryDy=0;" edge="1" parent="1" source="ama0kXbUllyE-8_Y7R_g-31" target="ama0kXbUllyE-8_Y7R_g-36">
          <mxGeometry relative="1" as="geometry">
            <mxPoint x="540" y="200" as="sourcePoint" />
            <mxPoint x="470" y="440" as="targetPoint" />
          </mxGeometry>
        </mxCell>
        <mxCell id="ama0kXbUllyE-8_Y7R_g-39" value="Publish public key" style="edgeLabel;resizable=0;html=1;;align=center;verticalAlign=middle;" connectable="0" vertex="1" parent="ama0kXbUllyE-8_Y7R_g-38">
          <mxGeometry relative="1" as="geometry" />
        </mxCell>
        <mxCell id="ama0kXbUllyE-8_Y7R_g-40" value="Approver&lt;div&gt;TLSA&lt;/div&gt;&lt;div&gt;Record&lt;/div&gt;" style="ellipse;whiteSpace=wrap;html=1;" vertex="1" parent="1">
          <mxGeometry x="770" y="210" width="80" height="40" as="geometry" />
        </mxCell>
        <mxCell id="ama0kXbUllyE-8_Y7R_g-44" value="" style="endArrow=classic;html=1;rounded=0;exitX=1;exitY=1;exitDx=0;exitDy=0;entryX=0;entryY=0.5;entryDx=0;entryDy=0;" edge="1" parent="1" source="ama0kXbUllyE-8_Y7R_g-36" target="ama0kXbUllyE-8_Y7R_g-40">
          <mxGeometry width="50" height="50" relative="1" as="geometry">
            <mxPoint x="400" y="460" as="sourcePoint" />
            <mxPoint x="450" y="410" as="targetPoint" />
          </mxGeometry>
        </mxCell>
        <mxCell id="ama0kXbUllyE-8_Y7R_g-46" value="" style="endArrow=none;dashed=1;html=1;dashPattern=1 3;strokeWidth=2;rounded=0;entryX=0.5;entryY=1;entryDx=0;entryDy=0;" edge="1" parent="1" target="ama0kXbUllyE-8_Y7R_g-45">
          <mxGeometry width="50" height="50" relative="1" as="geometry">
            <mxPoint x="320" y="560" as="sourcePoint" />
            <mxPoint x="320" y="100" as="targetPoint" />
          </mxGeometry>
        </mxCell>
        <mxCell id="ama0kXbUllyE-8_Y7R_g-45" value="" style="rounded=0;whiteSpace=wrap;html=1;" vertex="1" parent="1">
          <mxGeometry x="310" y="240" width="20" height="240" as="geometry" />
        </mxCell>
        <mxCell id="ama0kXbUllyE-8_Y7R_g-48" value="" style="endArrow=classic;html=1;rounded=0;exitX=1;exitY=0;exitDx=0;exitDy=0;entryX=0.9;entryY=0.083;entryDx=0;entryDy=0;entryPerimeter=0;" edge="1" parent="1" source="ama0kXbUllyE-8_Y7R_g-45" target="ama0kXbUllyE-8_Y7R_g-45">
          <mxGeometry relative="1" as="geometry">
            <mxPoint x="370" y="440" as="sourcePoint" />
            <mxPoint x="340" y="270" as="targetPoint" />
            <Array as="points">
              <mxPoint x="440" y="240" />
              <mxPoint x="440" y="260" />
            </Array>
          </mxGeometry>
        </mxCell>
        <mxCell id="ama0kXbUllyE-8_Y7R_g-49" value="Identify Protected Entity" style="edgeLabel;resizable=0;html=1;;align=center;verticalAlign=middle;" connectable="0" vertex="1" parent="ama0kXbUllyE-8_Y7R_g-48">
          <mxGeometry relative="1" as="geometry">
            <mxPoint x="-50" y="-20" as="offset" />
          </mxGeometry>
        </mxCell>
        <mxCell id="ama0kXbUllyE-8_Y7R_g-52" value="" style="endArrow=classic;html=1;rounded=0;exitX=1.05;exitY=0.229;exitDx=0;exitDy=0;entryX=0.85;entryY=0.333;entryDx=0;entryDy=0;exitPerimeter=0;entryPerimeter=0;" edge="1" parent="1" source="ama0kXbUllyE-8_Y7R_g-45" target="ama0kXbUllyE-8_Y7R_g-45">
          <mxGeometry relative="1" as="geometry">
            <mxPoint x="340" y="305" as="sourcePoint" />
            <mxPoint x="340" y="322.5" as="targetPoint" />
            <Array as="points">
              <mxPoint x="440" y="295" />
              <mxPoint x="440" y="320" />
            </Array>
          </mxGeometry>
        </mxCell>
        <mxCell id="ama0kXbUllyE-8_Y7R_g-53" value="Generate Emblem Request" style="edgeLabel;resizable=0;html=1;;align=center;verticalAlign=middle;" connectable="0" vertex="1" parent="ama0kXbUllyE-8_Y7R_g-52">
          <mxGeometry relative="1" as="geometry">
            <mxPoint x="-30" y="-22" as="offset" />
          </mxGeometry>
        </mxCell>
        <mxCell id="ama0kXbUllyE-8_Y7R_g-55" value="" style="endArrow=classic;html=1;rounded=0;entryX=0.25;entryY=0;entryDx=0;entryDy=0;" edge="1" parent="1" target="ama0kXbUllyE-8_Y7R_g-57">
          <mxGeometry relative="1" as="geometry">
            <mxPoint x="330" y="341" as="sourcePoint" />
            <mxPoint x="470" y="440" as="targetPoint" />
          </mxGeometry>
        </mxCell>
        <mxCell id="ama0kXbUllyE-8_Y7R_g-56" value="Digital Emblem Request" style="edgeLabel;resizable=0;html=1;;align=center;verticalAlign=middle;" connectable="0" vertex="1" parent="ama0kXbUllyE-8_Y7R_g-55">
          <mxGeometry relative="1" as="geometry" />
        </mxCell>
        <mxCell id="ama0kXbUllyE-8_Y7R_g-58" value="" style="endArrow=classic;html=1;rounded=0;exitX=1;exitY=0;exitDx=0;exitDy=0;entryX=1;entryY=0.25;entryDx=0;entryDy=0;" edge="1" parent="1" source="ama0kXbUllyE-8_Y7R_g-57" target="ama0kXbUllyE-8_Y7R_g-57">
          <mxGeometry relative="1" as="geometry">
            <mxPoint x="370" y="440" as="sourcePoint" />
            <mxPoint x="720" y="390" as="targetPoint" />
            <Array as="points">
              <mxPoint x="640" y="340" />
              <mxPoint x="640" y="358" />
            </Array>
          </mxGeometry>
        </mxCell>
        <mxCell id="ama0kXbUllyE-8_Y7R_g-59" value="Validate Request" style="edgeLabel;resizable=0;html=1;;align=center;verticalAlign=middle;" connectable="0" vertex="1" parent="ama0kXbUllyE-8_Y7R_g-58">
          <mxGeometry relative="1" as="geometry">
            <mxPoint x="-50" y="-20" as="offset" />
          </mxGeometry>
        </mxCell>
        <mxCell id="ama0kXbUllyE-8_Y7R_g-60" value="" style="endArrow=classic;html=1;rounded=0;exitX=1;exitY=0.75;exitDx=0;exitDy=0;entryX=1;entryY=1;entryDx=0;entryDy=0;" edge="1" parent="1" source="ama0kXbUllyE-8_Y7R_g-57" target="ama0kXbUllyE-8_Y7R_g-57">
          <mxGeometry relative="1" as="geometry">
            <mxPoint x="540" y="380" as="sourcePoint" />
            <mxPoint x="550" y="410" as="targetPoint" />
            <Array as="points">
              <mxPoint x="640" y="393" />
              <mxPoint x="640" y="410" />
            </Array>
          </mxGeometry>
        </mxCell>
        <mxCell id="ama0kXbUllyE-8_Y7R_g-61" value="Generate Emblem" style="edgeLabel;resizable=0;html=1;;align=center;verticalAlign=middle;" connectable="0" vertex="1" parent="ama0kXbUllyE-8_Y7R_g-60">
          <mxGeometry relative="1" as="geometry">
            <mxPoint x="-50" y="-22" as="offset" />
          </mxGeometry>
        </mxCell>
        <mxCell id="ama0kXbUllyE-8_Y7R_g-62" value="" style="endArrow=classic;html=1;rounded=0;exitX=0;exitY=1;exitDx=0;exitDy=0;entryX=0.95;entryY=0.7;entryDx=0;entryDy=0;entryPerimeter=0;" edge="1" parent="1" source="ama0kXbUllyE-8_Y7R_g-57" target="ama0kXbUllyE-8_Y7R_g-45">
          <mxGeometry relative="1" as="geometry">
            <mxPoint x="370" y="440" as="sourcePoint" />
            <mxPoint x="470" y="440" as="targetPoint" />
          </mxGeometry>
        </mxCell>
        <mxCell id="ama0kXbUllyE-8_Y7R_g-63" value="Signed Emblem" style="edgeLabel;resizable=0;html=1;;align=center;verticalAlign=middle;" connectable="0" vertex="1" parent="ama0kXbUllyE-8_Y7R_g-62">
          <mxGeometry relative="1" as="geometry" />
        </mxCell>
        <mxCell id="ama0kXbUllyE-8_Y7R_g-64" value="" style="endArrow=none;dashed=1;html=1;dashPattern=1 3;strokeWidth=2;rounded=0;entryX=0.5;entryY=1;entryDx=0;entryDy=0;" edge="1" parent="1" target="ama0kXbUllyE-8_Y7R_g-57">
          <mxGeometry width="50" height="50" relative="1" as="geometry">
            <mxPoint x="520" y="560" as="sourcePoint" />
            <mxPoint x="520" y="200" as="targetPoint" />
          </mxGeometry>
        </mxCell>
        <mxCell id="ama0kXbUllyE-8_Y7R_g-57" value="" style="rounded=0;whiteSpace=wrap;html=1;" vertex="1" parent="1">
          <mxGeometry x="510" y="340" width="20" height="70" as="geometry" />
        </mxCell>
        <mxCell id="ama0kXbUllyE-8_Y7R_g-66" value="" style="endArrow=none;dashed=1;html=1;dashPattern=1 3;strokeWidth=2;rounded=0;entryX=0.5;entryY=1;entryDx=0;entryDy=0;" edge="1" parent="1" target="ama0kXbUllyE-8_Y7R_g-65">
          <mxGeometry width="50" height="50" relative="1" as="geometry">
            <mxPoint x="120" y="560" as="sourcePoint" />
            <mxPoint x="120" y="100" as="targetPoint" />
          </mxGeometry>
        </mxCell>
        <mxCell id="ama0kXbUllyE-8_Y7R_g-65" value="" style="rounded=0;whiteSpace=wrap;html=1;" vertex="1" parent="1">
          <mxGeometry x="110" y="480" width="20" height="30" as="geometry" />
        </mxCell>
        <mxCell id="ama0kXbUllyE-8_Y7R_g-67" value="&lt;div&gt;Requestor&lt;/div&gt;&lt;div&gt;&lt;span style=&quot;background-color: initial;&quot;&gt;DE&lt;/span&gt;&lt;/div&gt;&lt;div&gt;&lt;span style=&quot;background-color: initial;&quot;&gt;Record&lt;/span&gt;&lt;/div&gt;" style="ellipse;whiteSpace=wrap;html=1;" vertex="1" parent="1">
          <mxGeometry y="490" width="80" height="40" as="geometry" />
        </mxCell>
        <mxCell id="ama0kXbUllyE-8_Y7R_g-68" value="" style="endArrow=classic;html=1;rounded=0;exitX=0;exitY=1;exitDx=0;exitDy=0;entryX=1;entryY=0.5;entryDx=0;entryDy=0;" edge="1" parent="1" source="ama0kXbUllyE-8_Y7R_g-65" target="ama0kXbUllyE-8_Y7R_g-67">
          <mxGeometry width="50" height="50" relative="1" as="geometry">
            <mxPoint x="400" y="460" as="sourcePoint" />
            <mxPoint x="450" y="410" as="targetPoint" />
          </mxGeometry>
        </mxCell>
        <mxCell id="ama0kXbUllyE-8_Y7R_g-69" value="" style="endArrow=classic;html=1;rounded=0;exitX=0;exitY=1;exitDx=0;exitDy=0;entryX=1;entryY=0;entryDx=0;entryDy=0;" edge="1" parent="1" source="ama0kXbUllyE-8_Y7R_g-45" target="ama0kXbUllyE-8_Y7R_g-65">
          <mxGeometry relative="1" as="geometry">
            <mxPoint x="370" y="440" as="sourcePoint" />
            <mxPoint x="470" y="440" as="targetPoint" />
          </mxGeometry>
        </mxCell>
        <mxCell id="ama0kXbUllyE-8_Y7R_g-70" value="Publish Digital Emblem" style="edgeLabel;resizable=0;html=1;;align=center;verticalAlign=middle;" connectable="0" vertex="1" parent="ama0kXbUllyE-8_Y7R_g-69">
          <mxGeometry relative="1" as="geometry" />
        </mxCell>
        <mxCell id="ama0kXbUllyE-8_Y7R_g-71" value="DE Request" style="swimlane;childLayout=stackLayout;horizontal=1;startSize=50;horizontalStack=0;rounded=1;fontSize=14;fontStyle=0;strokeWidth=2;resizeParent=0;resizeLast=1;shadow=0;dashed=0;align=center;arcSize=4;whiteSpace=wrap;html=1;" vertex="1" parent="1">
          <mxGeometry x="340" y="570" width="170" height="140" as="geometry" />
        </mxCell>
        <mxCell id="ama0kXbUllyE-8_Y7R_g-72" value="+FQDN&lt;div&gt;+Public Key (Optional)&lt;/div&gt;&lt;div&gt;+Validity Dates&lt;/div&gt;&lt;div&gt;+Usage Policies&lt;/div&gt;&lt;div&gt;+Alternative Names (Optional)&lt;/div&gt;" style="align=left;strokeColor=none;fillColor=none;spacingLeft=4;fontSize=12;verticalAlign=top;resizable=0;rotatable=0;part=1;html=1;" vertex="1" parent="ama0kXbUllyE-8_Y7R_g-71">
          <mxGeometry y="50" width="170" height="90" as="geometry" />
        </mxCell>
        <mxCell id="ama0kXbUllyE-8_Y7R_g-73" value="Digital Emblem" style="swimlane;childLayout=stackLayout;horizontal=1;startSize=50;horizontalStack=0;rounded=1;fontSize=14;fontStyle=0;strokeWidth=2;resizeParent=0;resizeLast=1;shadow=0;dashed=0;align=center;arcSize=4;whiteSpace=wrap;html=1;" vertex="1" parent="1">
          <mxGeometry x="540" y="570" width="160" height="150" as="geometry" />
        </mxCell>
        <mxCell id="ama0kXbUllyE-8_Y7R_g-74" value="+Requestor FQDN&lt;div&gt;+Requestor Public Key (Opt)&lt;/div&gt;&lt;div&gt;+Valid Dates&lt;/div&gt;&lt;div&gt;+Policies&lt;/div&gt;&lt;div&gt;+SANs (Opt)&lt;/div&gt;&lt;div&gt;+Approver Name&lt;/div&gt;" style="align=left;strokeColor=none;fillColor=none;spacingLeft=4;fontSize=12;verticalAlign=top;resizable=0;rotatable=0;part=1;html=1;" vertex="1" parent="ama0kXbUllyE-8_Y7R_g-73">
          <mxGeometry y="50" width="160" height="100" as="geometry" />
        </mxCell>
      </root>
    </mxGraphModel>
  </diagram>
</mxfile>
